<?xml version="1.0" encoding="utf-8"?>
<!-- Generator: Adobe Illustrator 27.5.0, SVG Export Plug-In . SVG Version: 6.00 Build 0)  -->
<svg version="1.1" xmlns="http://www.w3.org/2000/svg" xmlns:xlink="http://www.w3.org/1999/xlink" x="0px" y="0px"
	 viewBox="0 0 500 500" style="enable-background:new 0 0 500 500;" xml:space="preserve">
<g id="Background_Simple">
	<g>
		<path style="fill:#92E3A9;" d="M477.671,230.841c-5.237-25.635-14.442-50.651-25.377-73.65C433.43,117.515,402.533,84.563,363,65
			c-97-48-167-28-205,11s-27,106-68,135s-70,42-72,95s24,93,66,106s105,55,231,31s157-91,165-139.002
			C484.026,279.846,482.62,255.066,477.671,230.841z"/>
		<path style="opacity:0.7;fill:#FFFFFF;" d="M477.671,230.841c-5.237-25.635-14.442-50.651-25.377-73.65
			C433.43,117.515,402.533,84.563,363,65c-97-48-167-28-205,11s-27,106-68,135s-70,42-72,95s24,93,66,106s105,55,231,31
			s157-91,165-139.002C484.026,279.846,482.62,255.066,477.671,230.841z"/>
	</g>
</g>
<g id="Bookshelf">
	<g>
		
			<line style="fill:none;stroke:#263238;stroke-linecap:round;stroke-linejoin:round;stroke-miterlimit:10;" x1="157.129" y1="136.627" x2="157.129" y2="77.541"/>
		
			<line style="fill:none;stroke:#263238;stroke-linecap:round;stroke-linejoin:round;stroke-miterlimit:10;" x1="157.129" y1="432.363" x2="157.129" y2="142.513"/>
		<g>
			<g>
				
					<rect x="173.264" y="84.521" style="fill:#C9C9C9;stroke:#263238;stroke-linecap:round;stroke-linejoin:round;stroke-miterlimit:10;" width="9.057" height="40.153"/>
				
					<rect x="173.264" y="90.559" style="fill:#FFFFFF;stroke:#263238;stroke-linecap:round;stroke-linejoin:round;stroke-miterlimit:10;" width="9.057" height="3.925"/>
				
					<rect x="173.264" y="115.466" style="fill:#FFFFFF;stroke:#263238;stroke-linecap:round;stroke-linejoin:round;stroke-miterlimit:10;" width="9.057" height="3.925"/>
				
					<rect x="180.208" y="84.521" style="fill:#878787;stroke:#263238;stroke-linecap:round;stroke-linejoin:round;stroke-miterlimit:10;" width="12.68" height="40.153"/>
			</g>
			<g>
				
					<rect x="182.925" y="84.521" style="fill:#C9C9C9;stroke:#263238;stroke-linecap:round;stroke-linejoin:round;stroke-miterlimit:10;" width="9.057" height="40.153"/>
				
					<rect x="182.925" y="90.559" style="fill:#FFFFFF;stroke:#263238;stroke-linecap:round;stroke-linejoin:round;stroke-miterlimit:10;" width="9.057" height="3.925"/>
				
					<rect x="182.925" y="115.466" style="fill:#FFFFFF;stroke:#263238;stroke-linecap:round;stroke-linejoin:round;stroke-miterlimit:10;" width="9.057" height="3.925"/>
				
					<rect x="189.869" y="84.521" style="fill:#878787;stroke:#263238;stroke-linecap:round;stroke-linejoin:round;stroke-miterlimit:10;" width="12.68" height="40.153"/>
			</g>
			<g>
				
					<rect x="192.586" y="84.521" style="fill:#C9C9C9;stroke:#263238;stroke-linecap:round;stroke-linejoin:round;stroke-miterlimit:10;" width="9.057" height="40.153"/>
				
					<rect x="192.586" y="90.559" style="fill:#FFFFFF;stroke:#263238;stroke-linecap:round;stroke-linejoin:round;stroke-miterlimit:10;" width="9.057" height="3.925"/>
				
					<rect x="192.586" y="115.466" style="fill:#FFFFFF;stroke:#263238;stroke-linecap:round;stroke-linejoin:round;stroke-miterlimit:10;" width="9.057" height="3.925"/>
				
					<rect x="199.53" y="84.521" style="fill:#C9C9C9;stroke:#263238;stroke-linecap:round;stroke-linejoin:round;stroke-miterlimit:10;" width="12.68" height="40.153"/>
			</g>
			<g>
				<polygon style="fill:#FFFFFF;stroke:#263238;stroke-linecap:round;stroke-linejoin:round;stroke-miterlimit:10;" points="
					220.472,125.078 241.75,125.078 247.413,119.963 220.472,119.963 				"/>
				<polygon style="fill:#FFFFFF;stroke:#263238;stroke-linecap:round;stroke-linejoin:round;stroke-miterlimit:10;" points="
					245,125.341 244.325,124.174 220.027,124.121 220.732,125.341 				"/>
				
					<rect x="209.754" y="84.916" transform="matrix(0.8657 -0.5006 0.5006 0.8657 -23.7764 121.3759)" style="fill:#C9C9C9;stroke:#263238;stroke-linecap:round;stroke-linejoin:round;stroke-miterlimit:10;" width="9.057" height="40.153"/>
				
					<rect x="203.709" y="92.576" transform="matrix(0.8657 -0.5006 0.5006 0.8657 -19.3552 116.944)" style="fill:#FFFFFF;stroke:#263238;stroke-linecap:round;stroke-linejoin:round;stroke-miterlimit:10;" width="9.057" height="3.925"/>
				
					<rect x="216.178" y="114.138" transform="matrix(0.8657 -0.5006 0.5006 0.8657 -28.4741 126.0835)" style="fill:#FFFFFF;stroke:#263238;stroke-linecap:round;stroke-linejoin:round;stroke-miterlimit:10;" width="9.057" height="3.925"/>
				<polygon style="fill:#C9C9C9;stroke:#263238;stroke-linecap:round;stroke-linejoin:round;stroke-miterlimit:10;" points="
					247.267,120.311 228.04,120.258 207.939,85.498 227.166,85.551 				"/>
			</g>
			<g>
				<g>
					<path style="fill:#92E3A9;stroke:#263238;stroke-linecap:round;stroke-linejoin:round;stroke-miterlimit:10;" d="
						M257.75,104.75c0,0-3.5-1.25-4.5-6.75s-2.75-13.25-0.75-15s5.75-2.75,6.25,0.75S258.5,94,259.25,95.5C260,97,262.5,96,262.5,93
						c0-4.941-2.03-9.996-1.285-15.038c1.021-6.917,8-7.673,8.75-0.038c0.416,4.238,0.536,8.567,0.536,12.826
						c0,1.75,3,2.75,2.75-1.5c-0.179-3.036,2-6.5,5-5.5s0.5,14.25-0.5,16.5S270.5,103,270.5,103v5.75L263,109l-0.25-5.75
						C262.75,103.25,260.25,104.75,257.75,104.75z"/>
					<path style="fill:none;stroke:#263238;stroke-linecap:round;stroke-linejoin:round;stroke-miterlimit:10;" d="M264.502,93.793
						c0.092,1.246,0.152,2.036,0.152,2.036"/>
					<path style="fill:none;stroke:#263238;stroke-linecap:round;stroke-linejoin:round;stroke-miterlimit:10;" d="M265.034,74.399
						c0,0-1.648,1.141-1.522,4.565c0.077,2.076,0.48,7.833,0.785,12.045"/>
					
						<line style="fill:none;stroke:#263238;stroke-linecap:round;stroke-linejoin:round;stroke-miterlimit:10;" x1="267.824" y1="86.192" x2="268.077" y2="94.561"/>
					<path style="fill:none;stroke:#263238;stroke-linecap:round;stroke-linejoin:round;stroke-miterlimit:10;" d="M271.478,99.991
						c-0.969,0.15-1.752,0.15-1.752,0.15"/>
					<path style="fill:none;stroke:#263238;stroke-linecap:round;stroke-linejoin:round;stroke-miterlimit:10;" d="M276.7,85.938
						c0,0-0.888,1.522-0.888,3.551s0.127,7.609-1.141,9.13c-0.277,0.333-0.67,0.593-1.114,0.796"/>
					<path style="fill:none;stroke:#263238;stroke-linecap:round;stroke-linejoin:round;stroke-miterlimit:10;" d="M254.965,97.187
						c0.526,1.801,1.187,3.274,2.08,3.969c2.283,1.775,4.438,0.127,4.438,0.127"/>
					<path style="fill:none;stroke:#263238;stroke-linecap:round;stroke-linejoin:round;stroke-miterlimit:10;" d="M254.762,83.656
						c0,0-2.536,0-1.649,4.438c0.374,1.87,0.725,4.167,1.178,6.333"/>
					
						<line style="fill:none;stroke:#263238;stroke-linecap:round;stroke-linejoin:round;stroke-miterlimit:10;" x1="264.273" y1="100.521" x2="264.78" y2="105.974"/>
				</g>
				<polygon style="fill:#FFFFFF;stroke:#263238;stroke-linecap:round;stroke-linejoin:round;stroke-miterlimit:10;" points="
					277.25,106.5 276.34,113.96 275.72,119.04 275,124.95 257.01,124.95 256.29,119.04 255.67,113.96 254.76,106.5 				"/>
				<polygon style="fill:#92E3A9;stroke:#263238;stroke-linecap:round;stroke-linejoin:round;stroke-miterlimit:10;" points="
					276.34,113.96 275.72,119.04 256.29,119.04 255.67,113.96 				"/>
			</g>
			<g>
				
					<rect x="171.658" y="124.953" style="fill:#FFFFFF;stroke:#263238;stroke-linecap:round;stroke-linejoin:round;stroke-miterlimit:10;" width="115.47" height="7.647"/>
				
					<rect x="260.508" y="124.953" style="fill:#FFFFFF;stroke:#263238;stroke-linecap:round;stroke-linejoin:round;stroke-miterlimit:10;" width="26.62" height="7.647"/>
				<g>
					<path style="fill:#919191;stroke:#263238;stroke-linecap:round;stroke-linejoin:round;stroke-miterlimit:10;" d="
						M257.921,132.629c12.368,4.565,10.137,13.181,10.137,13.181h11.716v-13.181H257.921z"/>
					<path style="fill:#FFFFFF;stroke:#263238;stroke-linecap:round;stroke-linejoin:round;stroke-miterlimit:10;" d="
						M261.866,132.629c12.368,4.565,10.137,13.181,10.137,13.181h11.716v-13.181H261.866z"/>
				</g>
				<g>
					<path style="fill:#919191;stroke:#263238;stroke-linecap:round;stroke-linejoin:round;stroke-miterlimit:10;" d="
						M178.671,132.629c12.368,4.565,10.137,13.181,10.137,13.181h11.717v-13.181H178.671z"/>
					<path style="fill:#FFFFFF;stroke:#263238;stroke-linecap:round;stroke-linejoin:round;stroke-miterlimit:10;" d="
						M182.616,132.629c12.368,4.565,10.137,13.181,10.137,13.181h11.716v-13.181H182.616z"/>
				</g>
			</g>
		</g>
	</g>
</g>
<g id="Picture">
	<g>
		
			<rect x="344.481" y="85.953" style="fill:#919191;stroke:#263238;stroke-linecap:round;stroke-linejoin:round;stroke-miterlimit:10;" width="103.56" height="143.764"/>
		<rect x="348.976" y="92.193" style="fill:#92E3A9;" width="94.569" height="131.283"/>
		<rect x="348.976" y="92.193" style="opacity:0.5;fill:#FFFFFF;" width="94.569" height="131.283"/>
		<path style="fill:none;stroke:#263238;stroke-linecap:round;stroke-linejoin:round;stroke-miterlimit:10;" d="M369.77,213.497
			c-2.948,4.421-6.246,7.639-9.463,9.98h83.239V92.193h-15.331c-0.662,0.203-1.336,0.412-2.024,0.628
			c-15.041,4.728-30.504,18.422-39.294,43.295"/>
		<path style="fill:none;stroke:#263238;stroke-linecap:round;stroke-linejoin:round;stroke-miterlimit:10;" d="M385.459,140.48
			c-3.168,10.349-5.229,22.469-5.742,36.497c-0.543,14.848-3.702,25.517-7.923,33.183"/>
		<path style="fill:none;stroke:#263238;stroke-linecap:round;stroke-linejoin:round;stroke-miterlimit:10;" d="M434.296,125.509
			c-13.747,8.045-29.756,21.439-35.739,42.047c-3.206,11.042-0.199,20.922,5.754,29.412"/>
		<path style="fill:none;stroke:#263238;stroke-linecap:round;stroke-linejoin:round;stroke-miterlimit:10;" d="M407.527,201.106
			c8.256,9.669,20.002,17.259,29.515,22.37h6.504V120.657c-1.857,0.87-3.839,1.857-5.9,2.969"/>
		<path style="fill:none;stroke:#263238;stroke-linecap:round;stroke-linejoin:round;stroke-miterlimit:10;" d="M364.7,126.416
			c7.236-14.754,8.027-26.465,7.17-34.223h-22.894v60.056c3.387-4.811,7.529-11.243,12.528-19.862
			c0.304-0.524,0.599-1.044,0.887-1.561"/>
		<path style="fill:none;stroke:#263238;stroke-linecap:round;stroke-linejoin:round;stroke-miterlimit:10;" d="M373.664,183.273
			c-1.118,7.269-4.453,12.544-8.392,12.544c-4.856,0-8.792-8.014-8.792-17.899c0-9.885,3.936-17.899,8.792-17.899
			c4.856,0,8.792,8.014,8.792,17.899"/>
		<path style="fill:none;stroke:#263238;stroke-linecap:round;stroke-linejoin:round;stroke-miterlimit:10;" d="M377.832,141.179
			c0,3.815-1.687,6.908-3.768,6.908c-2.081,0-3.768-3.093-3.768-6.908c0-3.815,1.687-6.908,3.768-6.908
			C376.145,134.271,377.832,137.364,377.832,141.179z"/>
		<path style="fill:none;stroke:#263238;stroke-linecap:round;stroke-linejoin:round;stroke-miterlimit:10;" d="M425.81,170.368
			c3.63,1.734,6.033,4.749,6.033,8.178c0,5.376-5.905,9.734-13.188,9.734c-7.284,0-13.189-4.358-13.189-9.734
			c0-5.376,5.905-9.734,13.189-9.734c1.197,0,2.356,0.118,3.458,0.338"/>
		<path style="fill:none;stroke:#263238;stroke-linecap:round;stroke-linejoin:round;stroke-miterlimit:10;" d="M424.185,178.546
			c0,2.255-2.476,4.082-5.531,4.082s-5.531-1.828-5.531-4.082s2.476-4.082,5.531-4.082S424.185,176.292,424.185,178.546z"/>
		<path style="fill:none;stroke:#263238;stroke-linecap:round;stroke-linejoin:round;stroke-miterlimit:10;" d="M433.098,153.74
			c0,3.122-3.093,5.652-6.908,5.652s-6.908-2.531-6.908-5.652s3.093-5.652,6.908-5.652S433.098,150.618,433.098,153.74z"/>
		
			<ellipse style="fill:none;stroke:#263238;stroke-linecap:round;stroke-linejoin:round;stroke-miterlimit:10;" cx="383.171" cy="110.72" rx="4.71" ry="11.618"/>
		<path style="fill:none;stroke:#263238;stroke-linecap:round;stroke-linejoin:round;stroke-miterlimit:10;" d="M396.045,210.576
			c0,3.642-2.952,6.594-6.594,6.594s-6.594-2.952-6.594-6.594s2.952-6.594,6.594-6.594S396.045,206.934,396.045,210.576z"/>
		<path style="fill:none;stroke:#263238;stroke-linecap:round;stroke-linejoin:round;stroke-miterlimit:10;" d="M426.818,112.604
			c0,2.255-1.828,4.082-4.082,4.082c-2.254,0-4.082-1.828-4.082-4.082c0-2.254,1.828-4.082,4.082-4.082
			C424.991,108.522,426.818,110.35,426.818,112.604z"/>
		<path style="fill:none;stroke:#263238;stroke-linecap:round;stroke-linejoin:round;stroke-miterlimit:10;" d="M401.069,141.493
			c0,1.214-0.984,2.198-2.198,2.198c-1.214,0-2.198-0.984-2.198-2.198c0-1.214,0.984-2.198,2.198-2.198
			C400.085,139.295,401.069,140.279,401.069,141.493z"/>
		
			<rect x="348.976" y="92.193" style="fill:none;stroke:#263238;stroke-linecap:round;stroke-linejoin:round;stroke-miterlimit:10;" width="94.569" height="131.283"/>
	</g>
</g>
<g id="Device">
	<g>
		
			<rect x="263.3" y="279.387" style="fill:#263238;stroke:#263238;stroke-linecap:round;stroke-linejoin:round;stroke-miterlimit:10;" width="25.686" height="9.67"/>
		<g>
			<g>
				<polygon style="fill:#919191;stroke:#263238;stroke-linecap:round;stroke-linejoin:round;stroke-miterlimit:10;" points="
					323.465,280.845 221.212,280.845 226.052,201.587 328.306,201.587 				"/>
				<polygon style="fill:#263238;stroke:#263238;stroke-linecap:round;stroke-linejoin:round;stroke-miterlimit:10;" points="
					320.53,280.845 218.277,280.845 223.117,201.587 325.37,201.587 				"/>
				<polygon style="fill:#FFFFFF;stroke:#263238;stroke-linecap:round;stroke-linejoin:round;stroke-miterlimit:10;" points="
					315.118,276.442 224.226,276.442 228.529,205.99 319.421,205.99 				"/>
			</g>
			<g>
				<g>
					<polygon style="fill:#919191;stroke:#263238;stroke-linecap:round;stroke-linejoin:round;stroke-miterlimit:10;" points="
						288.681,265.942 226.938,265.942 230.254,211.647 291.997,211.647 					"/>
					<g>
						<g>
							<path style="fill:#FFFFFF;stroke:#263238;stroke-linecap:round;stroke-linejoin:round;stroke-miterlimit:10;" d="
								M251.296,242.616c0,0-12.856,5.096-12.94,6.468c-0.084,1.372-2.598,16.857-2.598,16.857h38.222l-3.223-17.837l-14.146-5.88
								L251.296,242.616z"/>
							<path style="fill:#FFFFFF;stroke:#263238;stroke-linecap:round;stroke-linejoin:round;stroke-miterlimit:10;" d="
								M251.683,239.48c0,0-1.592,0.392-2.632,1.372s-2.223,4.312-2.223,4.312l-0.043,3.92l5.068-2.744l5.12-0.392l4.821,4.508
								l0.615-6.86c0,0-0.741-3.92-2.297-4.116C258.555,239.284,251.683,239.48,251.683,239.48z"/>
							<polygon style="fill:#FFFFFF;stroke:#263238;stroke-linecap:round;stroke-linejoin:round;stroke-miterlimit:10;" points="
								251.519,235.756 251.296,242.616 254.328,247.517 259.344,242.42 260.119,236.148 							"/>
							<path style="fill:#FFFFFF;stroke:#263238;stroke-linecap:round;stroke-linejoin:round;stroke-miterlimit:10;" d="
								M263.875,227.739c-0.351,5.75-4.174,12.721-8.365,12.721c-4.191,0-7.163-6.971-6.811-12.721
								c0.351-5.75,4.033-10.412,8.224-10.412C261.114,217.327,264.227,221.989,263.875,227.739z"/>
							<path style="fill:#FFFFFF;stroke:#263238;stroke-linecap:round;stroke-linejoin:round;stroke-miterlimit:10;" d="
								M248.629,228.503c0,0-1.353-3.528-1.912-0.784c-0.56,2.744,2.201,5.684,2.201,5.684L248.629,228.503z"/>
							<path style="fill:#FFFFFF;stroke:#263238;stroke-linecap:round;stroke-linejoin:round;stroke-miterlimit:10;" d="
								M263.875,227.739c0,0,3.311-1.392,2.347,1.548c-0.964,2.94-3.364,3.724-3.364,3.724L263.875,227.739z"/>
							<path style="fill:#FFFFFF;stroke:#263238;stroke-linecap:round;stroke-linejoin:round;stroke-miterlimit:10;" d="
								M255.098,228.503c0.093-1.515-1.061-2.744-2.577-2.744c-1.516,0-2.819,1.229-2.912,2.744
								c-0.092,1.516,1.061,2.744,2.577,2.744C253.701,231.248,255.005,230.019,255.098,228.503z"/>
							
								<line style="fill:none;stroke:#263238;stroke-linecap:round;stroke-linejoin:round;stroke-miterlimit:10;" x1="261.762" y1="228.503" x2="264.75" y2="227.719"/>
							<path style="fill:#FFFFFF;stroke:#263238;stroke-linecap:round;stroke-linejoin:round;stroke-miterlimit:10;" d="
								M261.762,228.503c0.093-1.515-1.061-2.744-2.577-2.744c-1.516,0-2.819,1.229-2.912,2.744
								c-0.093,1.516,1.061,2.744,2.577,2.744C260.366,231.248,261.669,230.019,261.762,228.503z"/>
							<path style="fill:#263238;stroke:#263238;stroke-linecap:round;stroke-linejoin:round;stroke-miterlimit:10;" d="
								M256.244,216.155c0,0-3.04-1.568-5.256-0.588c-2.216,0.98-3.911,6.272-3.799,7.644c0.112,1.372,1.441,5.292,1.441,5.292
								l2.379-6.86l6.244-2.744L256.244,216.155z"/>
							<path style="fill:#263238;stroke:#263238;stroke-linecap:round;stroke-linejoin:round;stroke-miterlimit:10;" d="
								M253.22,217.527c0,0,4.944-3.92,8.94-1.96c3.997,1.96,3.585,5.488,3.525,6.468c-0.06,0.98-0.139,5.488-0.139,5.488
								l-2.376,0.392l-1.145-3.724c0,0-1.863-0.715-3.933-1.866C258.093,222.325,252.772,221.643,253.22,217.527z"/>
							<polyline style="fill:#FFFFFF;stroke:#263238;stroke-linecap:round;stroke-linejoin:round;stroke-miterlimit:10;" points="
								255.098,228.503 254.75,234.188 256.123,234.188 							"/>
							
								<line style="fill:#FFFFFF;stroke:#263238;stroke-linecap:round;stroke-linejoin:round;stroke-miterlimit:10;" x1="254.031" y1="236.344" x2="256.971" y2="236.344"/>
							
								<line style="fill:none;stroke:#263238;stroke-linecap:round;stroke-linejoin:round;stroke-miterlimit:10;" x1="254.328" y1="247.517" x2="253.239" y2="265.354"/>
							<path style="fill:none;stroke:#263238;stroke-linecap:round;stroke-linejoin:round;stroke-miterlimit:10;" d="
								M270.758,248.105c0,0-4.091,9.213-4.211,11.173c-0.12,1.96-0.579,6.272-0.579,6.272"/>
							<path style="fill:none;stroke:#263238;stroke-linecap:round;stroke-linejoin:round;stroke-miterlimit:10;" d="
								M238.356,249.085c0,0,4.077,7.056,4.605,8.036c0.528,0.98-0.123,8.428-0.123,8.428"/>
						</g>
						<polygon style="fill:#FFFFFF;stroke:#263238;stroke-linecap:round;stroke-linejoin:round;stroke-miterlimit:10;" points="
							273.487,254.769 274.838,248.693 277.138,246.34 279.313,242.812 280.293,242.812 279.086,246.536 282.134,244.772 
							284.089,241.636 285.229,242.224 282.434,249.477 277.99,251.633 277.223,254.573 						"/>
						<polygon style="fill:#FFFFFF;stroke:#263238;stroke-linecap:round;stroke-linejoin:round;stroke-miterlimit:10;" points="
							277.289,265.942 277.663,253.789 273.202,253.005 269.679,265.942 						"/>
					</g>
					<polygon style="fill:#FFFFFF;stroke:#263238;stroke-linecap:round;stroke-linejoin:round;stroke-miterlimit:10;" points="
						288.406,270.45 226.662,270.45 226.938,265.942 288.681,265.942 					"/>
					
						<line style="fill:#FFFFFF;stroke:#263238;stroke-linecap:round;stroke-linejoin:round;stroke-miterlimit:10;" x1="229.182" y1="267.706" x2="285.829" y2="267.706"/>
				</g>
				<g>
					<polygon style="fill:#92E3A9;stroke:#263238;stroke-linecap:round;stroke-linejoin:round;stroke-miterlimit:10;" points="
						315.221,226.141 294.444,226.141 295.318,211.832 316.095,211.832 					"/>
					<polygon style="fill:#FFFFFF;stroke:#263238;stroke-linecap:round;stroke-linejoin:round;stroke-miterlimit:10;" points="
						315.221,226.141 294.444,226.141 294.588,223.788 315.365,223.788 					"/>
					<polygon style="fill:#FFFFFF;stroke:#263238;stroke-linecap:round;stroke-linejoin:round;stroke-miterlimit:10;" points="
						308.51,218.152 303.113,214.922 302.718,221.382 					"/>
				</g>
				<g>
					<polygon style="fill:#92E3A9;stroke:#263238;stroke-linecap:round;stroke-linejoin:round;stroke-miterlimit:10;" points="
						313.868,248.295 293.091,248.295 293.965,233.986 314.742,233.986 					"/>
					<polygon style="fill:#FFFFFF;stroke:#263238;stroke-linecap:round;stroke-linejoin:round;stroke-miterlimit:10;" points="
						313.868,248.295 293.091,248.295 293.235,245.943 314.012,245.943 					"/>
					<polygon style="fill:#FFFFFF;stroke:#263238;stroke-linecap:round;stroke-linejoin:round;stroke-miterlimit:10;" points="
						307.157,240.307 301.76,237.077 301.365,243.536 					"/>
				</g>
				<g>
					<polygon style="fill:#92E3A9;stroke:#263238;stroke-linecap:round;stroke-linejoin:round;stroke-miterlimit:10;" points="
						312.515,270.45 291.738,270.45 292.612,256.141 313.389,256.141 					"/>
					<polygon style="fill:#FFFFFF;stroke:#263238;stroke-linecap:round;stroke-linejoin:round;stroke-miterlimit:10;" points="
						312.515,270.45 291.738,270.45 291.882,268.098 312.659,268.098 					"/>
					<polygon style="fill:#FFFFFF;stroke:#263238;stroke-linecap:round;stroke-linejoin:round;stroke-miterlimit:10;" points="
						305.804,262.461 300.407,259.231 300.012,265.691 					"/>
				</g>
				<g>
					
						<line style="fill:none;stroke:#263238;stroke-linecap:round;stroke-linejoin:round;stroke-miterlimit:10;" x1="294.496" y1="228.503" x2="314.685" y2="228.503"/>
					
						<line style="fill:none;stroke:#263238;stroke-linecap:round;stroke-linejoin:round;stroke-miterlimit:10;" x1="294.352" y1="230.856" x2="314.541" y2="230.856"/>
				</g>
				<g>
					
						<line style="fill:none;stroke:#263238;stroke-linecap:round;stroke-linejoin:round;stroke-miterlimit:10;" x1="293.131" y1="250.849" x2="313.32" y2="250.849"/>
					
						<line style="fill:none;stroke:#263238;stroke-linecap:round;stroke-linejoin:round;stroke-miterlimit:10;" x1="292.988" y1="253.201" x2="313.177" y2="253.201"/>
				</g>
			</g>
		</g>
		<path style="fill:#FFFFFF;stroke:#263238;stroke-linecap:round;stroke-linejoin:round;stroke-miterlimit:10;" d="M284.176,289.057
			h-15.153l0,0c0-3.151,2.554-5.705,5.705-5.705h3.744C281.621,283.352,284.176,285.906,284.176,289.057L284.176,289.057z"/>
		<g>
			
				<rect x="187.546" y="285.945" style="fill:#919191;stroke:#263238;stroke-linecap:round;stroke-linejoin:round;stroke-miterlimit:10;" width="74.215" height="3.112"/>
			
				<rect x="243.098" y="285.945" style="fill:#FFFFFF;stroke:#263238;stroke-linecap:round;stroke-linejoin:round;stroke-miterlimit:10;" width="18.647" height="3.112"/>
		</g>
	</g>
</g>
<g id="Table">
	<g>
		<path style="fill:#919191;stroke:#263238;stroke-linecap:round;stroke-linejoin:round;stroke-miterlimit:10;" d="M292.066,309.796
			l8.975,121.332c0.068,0.912,0.828,1.617,1.742,1.617c0.972,0,1.757-0.794,1.747-1.766l-1.324-121.183H292.066z"/>
		<path style="fill:#FFFFFF;stroke:#263238;stroke-linecap:round;stroke-linejoin:round;stroke-miterlimit:10;" d="M298.856,309.796
			l4.755,122.731c0.55-0.299,0.926-0.878,0.919-1.548l-1.324-121.183H298.856z"/>
		<path style="fill:#919191;stroke:#263238;stroke-linecap:round;stroke-linejoin:round;stroke-miterlimit:10;" d="M348.636,309.796
			l8.975,121.332c0.068,0.912,0.828,1.617,1.742,1.617c0.972,0,1.757-0.794,1.747-1.766l-1.324-121.183H348.636z"/>
		<path style="fill:#FFFFFF;stroke:#263238;stroke-linecap:round;stroke-linejoin:round;stroke-miterlimit:10;" d="M354.895,309.796
			l5.546,122.558c0.403-0.324,0.664-0.817,0.658-1.375l-1.324-121.183H354.895z"/>
		<path style="fill:#263238;stroke:#263238;stroke-linecap:round;stroke-linejoin:round;stroke-miterlimit:10;" d="M199.52,311.12
			l-9.026,120.008c-0.068,0.912-0.828,1.617-1.742,1.617l0,0c-0.972,0-1.757-0.794-1.747-1.766l1.335-120.197L199.52,311.12z"/>
		<path style="fill:#263238;stroke:#263238;stroke-linecap:round;stroke-linejoin:round;stroke-miterlimit:10;" d="M142.95,311.12
			l-9.026,120.008c-0.068,0.912-0.828,1.617-1.742,1.617l0,0c-0.972,0-1.757-0.794-1.747-1.766l1.335-120.197L142.95,311.12z"/>
		
			<rect x="128.456" y="291.879" style="fill:#919191;stroke:#263238;stroke-linecap:round;stroke-linejoin:round;stroke-miterlimit:10;" width="234.629" height="18.902"/>
		
			<rect x="295.845" y="291.879" style="fill:#FFFFFF;stroke:#263238;stroke-linecap:round;stroke-linejoin:round;stroke-miterlimit:10;" width="67.24" height="18.902"/>
		
			<rect x="128.456" y="294.878" style="fill:#263238;stroke:#263238;stroke-linecap:round;stroke-linejoin:round;stroke-miterlimit:10;" width="234.629" height="5.206"/>
		
			<rect x="125.077" y="289.168" style="fill:#919191;stroke:#263238;stroke-linecap:round;stroke-linejoin:round;stroke-miterlimit:10;" width="241.388" height="6.317"/>
		
			<rect x="300.174" y="289.168" style="fill:#FFFFFF;stroke:#263238;stroke-linecap:round;stroke-linejoin:round;stroke-miterlimit:10;" width="66.291" height="6.317"/>
	</g>
</g>
<g id="Text_Baloon">
	<g>
		<path style="fill:#FFFFFF;stroke:#263238;stroke-linecap:round;stroke-linejoin:round;stroke-miterlimit:10;" d="M295.291,172
			h-32.582c-3.535,0-6.4,2.865-6.4,6.4v12.024c0,3.535,2.865,6.4,6.4,6.4h17.063l-6.396,17.842l12.245-17.842h9.67
			c3.535,0,6.4-2.865,6.4-6.4V178.4C301.691,174.865,298.826,172,295.291,172z"/>
		<circle style="fill:#263238;" cx="270.273" cy="184.8" r="2.327"/>
		<circle style="fill:#263238;" cx="279" cy="184.8" r="2.327"/>
		<path style="fill:#263238;" d="M290.055,184.8c0-1.285-1.042-2.327-2.327-2.327s-2.327,1.042-2.327,2.327
			c0,1.285,1.042,2.327,2.327,2.327S290.055,186.085,290.055,184.8z"/>
	</g>
</g>
<g id="Floor">
	<g>
		
			<line style="fill:none;stroke:#263238;stroke-linecap:round;stroke-linejoin:round;stroke-miterlimit:10;" x1="450" y1="433" x2="477" y2="433"/>
		
			<line style="fill:none;stroke:#263238;stroke-linecap:round;stroke-linejoin:round;stroke-miterlimit:10;" x1="24" y1="433" x2="436" y2="433"/>
	</g>
</g>
<g id="Character">
	<g>
		<g>
			<g>
				<g>
					<path style="fill:#FFFFFF;stroke:#263238;stroke-linecap:round;stroke-linejoin:round;stroke-miterlimit:10;" d="
						M182.637,256.277c-2.932-4.984-11.545-24.242-11.545-24.242s0.537-4.119,1.253-6.088c0.716-1.97,2.507-8.058,2.149-9.312
						c-0.358-1.253-5.551-3.581-6.089-3.76c-0.537-0.179,0.716-3.223-1.254-3.94c-1.97-0.716-2.686,0.358-2.686,0.358l-0.742,4.994
						l-2.302,3.602c0,0-1.432-1.074-3.044-1.97c-1.612-0.895-5.372-1.254-5.551,0.179c-0.179,1.433,3.044,2.686,4.119,3.581
						c1.074,0.895,2.507,5.193,3.76,6.447c1.253,1.254,3.223,3.94,3.223,3.94l0.716,2.328c0,0,2.454,23.591,2.747,29.454
						c0.293,5.863,1.173,21.401,2.932,23.747c1.759,2.345,2.052,3.811,7.036,2.052c4.984-1.759,5.863-4.104,7.036-9.381
						C185.569,272.988,185.569,261.261,182.637,256.277z"/>
					<path style="fill:#92E3A9;stroke:#263238;stroke-linecap:round;stroke-linejoin:round;stroke-miterlimit:10;" d="
						M184.396,278.265c1.173-5.277,1.173-17.004-1.759-21.988c-0.319-0.542-0.708-1.261-1.143-2.098
						c-6.63-1.927-12.929,1.219-12.929,1.219l-1.608,0.705c0.213,2.449,0.373,4.499,0.436,5.744
						c0.293,5.863,1.173,21.401,2.932,23.747c1.759,2.345,2.052,3.811,7.036,2.052C182.344,285.887,183.223,283.542,184.396,278.265
						z"/>
				</g>
				<g>
					<path style="fill:#FFFFFF;stroke:#263238;stroke-linecap:round;stroke-linejoin:round;stroke-miterlimit:10;" d="
						M161.26,176.946c0,0,1.204,4.215,1.204,8.129c0,3.914-1.204,6.323,0.602,7.527c1.806,1.204,3.312,1.204,3.011,3.613
						c-0.301,2.409-1.505,3.613-1.505,3.613s-0.602,12.344-1.204,13.549c-0.602,1.204-8.43-0.301-10.237-0.602
						s-6.925,2.108-10.237-4.516c-3.312-6.624-0.602-16.56,5.419-21.678C154.335,181.462,161.26,176.946,161.26,176.946z"/>
					<path style="fill:none;stroke:#263238;stroke-linecap:round;stroke-linejoin:round;stroke-miterlimit:10;" d="M162.465,185.075
						c0,0-1.635-1.219-2.492,0.922"/>
					<path style="fill:none;stroke:#263238;stroke-linecap:round;stroke-linejoin:round;stroke-miterlimit:10;" d="M161.043,190.065
						c0,0-0.428,1.927,0.214,3.64"/>
					<path style="fill:none;stroke:#263238;stroke-linecap:round;stroke-linejoin:round;stroke-miterlimit:10;" d="M164.041,204.195
						c0,0-1.927,0.642-2.569-1.499"/>
				</g>
				<g>
					<path style="fill:#FFFFFF;stroke:#263238;stroke-linecap:round;stroke-linejoin:round;stroke-miterlimit:10;" d="
						M167.413,260.797c0,0-1.046,4.582-1.892,6.999c-0.846,2.417-16.85,6.868-23.796,7.787c-6.946,0.919-13.806,0.911-13.806,0.911
						l0.439,12.661c0,0,13.458,0.263,14.414,0.039c0.956-0.224,23.606-10.404,23.606-10.404l9.786-1.281
						c0,0,4.109-0.989,4.266-4.189s-3.473-12.254-5.116-13.666c-1.643-1.411-5.139-5.151-7.222-2.849
						C166.009,259.108,167.413,260.797,167.413,260.797z"/>
					<path style="fill:#92E3A9;stroke:#263238;stroke-linecap:round;stroke-linejoin:round;stroke-miterlimit:10;" d="
						M137.397,283.534c0-5.478,1.405-5.619,2.976-7.785c-6.457,0.75-12.454,0.743-12.454,0.743l-0.328,11.613
						c0,0,7.371,0.679,11.858,0.976C139.106,289.68,137.397,287.047,137.397,283.534z"/>
				</g>
				<g>
					<path style="fill:#92E3A9;stroke:#263238;stroke-linecap:round;stroke-linejoin:round;stroke-miterlimit:10;" d="
						M180.859,308.129c-8.193-9.597-19.662-13.108-19.662-13.108l-17.556,7.49c0,0-2.107-5.384-5.384-9.363
						c-3.277-3.979-3.277-3.979-3.277-3.979l2.107-11.47c0,0,12.64-8.661,14.279-12.406c0.016-0.037,0.039-0.081,0.058-0.119
						c2.534,3.93,13.557,20.936,15.626,22.591c2.341,1.873,9.363,2.107,12.406-0.702c3.043-2.809,4.448-4.681,3.745-8.895
						c0,0-4.682-10.065-7.256-14.513c-2.575-4.447-8.193-20.365-11.002-25.28c-2.014-3.525-2.828-5.962-4.248-7.666
						c-1.146-1.949-2.397-3.571-3.477-4.74c-2.809-3.043-10.533-3.745-12.172-4.448c-1.638-0.702-1.873-0.936-11.236-3.745
						c-9.363-2.809-19.897-4.447-27.387,1.404c0,0-10.065,11.938-14.045,31.6s-4.213,39.559-4.682,43.07
						c-0.468,3.511-4.448,20.599-5.618,30.43c-1.17,9.831,9.129,19.662,15.449,22.706c6.32,3.043,33.473,3.511,49.39,0
						c15.917-3.511,41.198-19.429,41.198-19.429S189.051,317.726,180.859,308.129z"/>
					<g>
						
							<line style="fill:none;stroke:#263238;stroke-linecap:round;stroke-linejoin:round;stroke-miterlimit:10;" x1="139.466" y1="264.884" x2="136.257" y2="264.773"/>
						<path style="fill:none;stroke:#263238;stroke-linecap:round;stroke-linejoin:round;stroke-miterlimit:10;" d="
							M138.257,259.773c6.333,2,13.108,5.52,13.108,5.52l-8.244-0.284"/>
					</g>
				</g>
				<g>
					<path style="fill:#FFFFFF;stroke:#263238;stroke-linecap:round;stroke-linejoin:round;stroke-miterlimit:10;" d="
						M181.749,265.684c0,0,1.663,2.587,1.663,4.804c0,2.217,0.37,5.173-0.554,4.249c-0.924-0.924-1.293-4.065-1.293-4.065
						L181.749,265.684z"/>
					<path style="fill:#FFFFFF;stroke:#263238;stroke-linecap:round;stroke-linejoin:round;stroke-miterlimit:10;" d="
						M176.206,263.098c0,0,3.468-1.875,4.972,0.381c1.504,2.256,1.128,6.768,0,9.024c-1.128,2.256-2.417,0.099-2.256-1.88
						C179.084,268.643,176.206,263.098,176.206,263.098z"/>
					<path style="fill:#FFFFFF;stroke:#263238;stroke-linecap:round;stroke-linejoin:round;stroke-miterlimit:10;" d="
						M174.913,260.696c0,0,3.468-1.875,4.972,0.381c1.504,2.256,1.128,6.768,0,9.024c-1.128,2.256-2.418,0.099-2.256-1.88
						S174.913,260.696,174.913,260.696z"/>
					<path style="fill:#FFFFFF;stroke:#263238;stroke-linecap:round;stroke-linejoin:round;stroke-miterlimit:10;" d="
						M173.325,258.109c0,0,3.468-1.876,4.972,0.381c1.504,2.256,1.128,6.768,0,9.024c-1.128,2.256-2.418,0.099-2.256-1.88
						C176.202,263.655,173.325,258.109,173.325,258.109z"/>
				</g>
				<g>
					<path style="fill:#263238;stroke:#263238;stroke-linecap:round;stroke-linejoin:round;stroke-miterlimit:10;" d="
						M164.544,167.608c0.051,3.777-1.107,7.834-2.681,10.241c-5.118,7.828-9.936,6.925-12.043,13.248
						c-2.108,6.323-5.118,12.947-1.806,16.56c3.312,3.613,6.022,1.505,6.022,1.505s2.107,5.42-3.312,10.839
						c-5.419,5.42-14.753,3.312-17.162,2.409c-2.409-0.903-4.215-2.409-4.215-2.409s-1.505,4.215-9.033,4.215
						c-7.527,0-15.958-5.118-15.958-14.452c0-9.334,5.118-15.656,6.323-19.269c1.204-3.613-2.108-14.753,3.011-21.678
						c5.118-6.925,12.947-12.043,18.968-12.043c6.003,0,17.717,3.286,17.764,3.312c0.791,0.426,5.851-1.631,7.216-1.541
						C162.649,158.874,164.482,163.036,164.544,167.608z"/>
					<path style="fill:none;stroke:#919191;stroke-linecap:round;stroke-linejoin:round;stroke-miterlimit:10;" d="M144.984,210.436
						c1.022,0.149,2.125,0.165,3.287,0.026"/>
					<path style="fill:none;stroke:#919191;stroke-linecap:round;stroke-linejoin:round;stroke-miterlimit:10;" d="M160.2,172.863
						c-0.428,2.352-1.286,4.989-2.913,7.545c-4.675,7.346-10.018,10.018-16.362,17.03c-4.096,4.527-3.321,9.055-0.01,11.426"/>
					<path style="fill:none;stroke:#919191;stroke-linecap:round;stroke-linejoin:round;stroke-miterlimit:10;" d="M160.292,165.048
						c0,0,0.271,1.303,0.289,3.34"/>
					<path style="fill:none;stroke:#919191;stroke-linecap:round;stroke-linejoin:round;stroke-miterlimit:10;" d="M153.948,172.061
						c0,0-1.002,10.352-5.343,16.362c-4.341,6.011-13.023,9.016-12.689,15.361"/>
				</g>
			</g>
			<g>
				<g>
					<path style="fill:#FFFFFF;stroke:#263238;stroke-linecap:round;stroke-linejoin:round;stroke-miterlimit:10;" d="
						M194.302,345.314c0,0,6.233,32.056,11.576,47.638c5.343,15.583,10.685,29.829,12.021,31.165
						c1.336,1.336,4.897,6.233,4.897,6.233s-2.671,2.226-5.788,2.226s-7.123-4.007-10.685-6.233
						c-3.562-2.226-4.007-3.562-11.13-6.233c-7.123-2.671-1.336-9.795,0.445-13.357c1.781-3.562,1.781-6.233,1.781-6.233
						s-3.562-14.692-14.692-27.158c-11.13-12.466-13.357-41.405-13.357-41.405l21.37-8.014L194.302,345.314z"/>
					<g>
						<path style="fill:#92E3A9;stroke:#263238;stroke-linecap:round;stroke-linejoin:round;stroke-miterlimit:10;" d="
							M216.963,422.523l-1.29,0.258c0,0-7.569-10.24-13.357-13.802c-2.933-1.805-5.176-2.236-6.679-2.224
							c-1.782,3.562-7.566,10.684-0.444,13.354c7.123,2.671,7.569,4.007,11.13,6.233c3.562,2.226,7.569,6.233,10.685,6.233
							s5.788-2.226,5.788-2.226s-3.562-4.897-4.897-6.233C217.685,423.903,217.367,423.353,216.963,422.523z"/>
						<g>
							<path style="fill:#92E3A9;stroke:#263238;stroke-linecap:round;stroke-linejoin:round;stroke-miterlimit:10;" d="
								M213.407,431.312c-3.521-2.433-6.7-7.834-12.426-11.203c-5.208-3.064-7.887-3.176-9.051-2.948
								c0.382,1.198,1.357,2.233,3.263,2.948c7.123,2.671,7.569,4.007,11.13,6.233C208.619,427.778,211.099,429.948,213.407,431.312
								z"/>
							<path style="fill:#92E3A9;stroke:#263238;stroke-linecap:round;stroke-linejoin:round;stroke-miterlimit:10;" d="
								M217.008,432.576c-0.231,0-0.453-0.034-0.676-0.063C216.561,432.551,216.788,432.576,217.008,432.576z"/>
						</g>
					</g>
				</g>
				<path style="fill:#FFFFFF;stroke:#263238;stroke-linecap:round;stroke-linejoin:round;stroke-miterlimit:10;" d="
					M154.622,296.993c0,0,21.394-7.581,23.394-2.581s11.16,23.645,7.827,31.312c-3.333,7.667-26.827-21.979-30.16-22.645
					C152.35,302.412,154.228,299.241,154.622,296.993z"/>
				<path style="fill:#FFFFFF;stroke:#263238;stroke-linecap:round;stroke-linejoin:round;stroke-miterlimit:10;" d="
					M175.591,306.773c0,0,24.333-2,29,2.333c4.667,4.333-11.333,56.333-20,72.667c-13.551,25.538-9.477,32.212-9.477,32.212
					s1,4,7.667,10.333c6.667,6.333,8.667,7.333,6.333,8.333c-2.333,1-12.333,0-13.333-0.667s-8.333-6.667-15-8.667
					c-6.667-2-5.667-3.333-2.667-9.333s2.667-1,6-11.334c3.61-11.191,7.529-27.263,9.438-38.855
					c1.763-10.707,4.472-22.467,3.705-33.356C177.257,330.44,175.591,306.773,175.591,306.773z"/>
				<path style="fill:#263238;stroke:#263238;stroke-linecap:round;stroke-linejoin:round;stroke-miterlimit:10;" d="
					M193.412,323.053c0,0-3.117-8.904-12.553-14.923c-10.639-6.786-19.662-13.108-19.662-13.108l-17.556,7.49
					c0,0,4.284,7.262-17.716,10.928c-16.943,2.824-32.494-1.273-40.883-6.198c-1.168,5.803-2.395,12.273-2.962,17.039
					c-1.17,9.831,9.129,19.662,15.449,22.706c6.32,3.043,57.242,9.368,70.953,0.554
					C193.412,331.512,193.412,323.053,193.412,323.053z"/>
				<path style="fill:#92E3A9;stroke:#263238;stroke-linecap:round;stroke-linejoin:round;stroke-miterlimit:10;" d="
					M141.651,308.014c-2.347,1.921-6.935,3.96-15.727,5.425c-16.943,2.824-32.494-1.273-40.883-6.198
					c-0.299,1.487-0.602,3.017-0.897,4.551c5.747,3.455,17.825,9.32,31.447,7.647C131.841,317.444,139.065,313.01,141.651,308.014z"
					/>
				<g>
					<path style="fill:none;stroke:#FFFFFF;stroke-linecap:round;stroke-linejoin:round;stroke-miterlimit:10;" d="M128.674,329.418
						c-0.783,1.018-1.59,2.029-2.417,3.021"/>
					<path style="fill:none;stroke:#FFFFFF;stroke-linecap:round;stroke-linejoin:round;stroke-miterlimit:10;" d="M140.924,310.44
						c0,0-4.21,7.976-10.281,16.342"/>
					<path style="fill:none;stroke:#FFFFFF;stroke-linecap:round;stroke-linejoin:round;stroke-miterlimit:10;" d="M133.591,316.773
						c0,0-6,8-12.333,12.667"/>
				</g>
				<g>
					<path style="fill:#92E3A9;stroke:#263238;stroke-linecap:round;stroke-linejoin:round;stroke-miterlimit:10;" d="
						M182.781,424.318c-6.667-6.333-7.667-10.333-7.667-10.333s-0.257-0.194-0.526-0.748c-0.451,0.478-1.808,1.363-5.141,0.082
						c-2.889-1.111-5.63-2.959-8.518-4.268c-0.687,1.228-1.357,2.02-2.815,4.935c-3,6-4,7.333,2.667,9.333c6.667,2,14,8,15,8.667
						s11,1.667,13.333,0.667C191.447,431.651,189.447,430.651,182.781,424.318z"/>
					
						<line style="fill:none;stroke:#263238;stroke-linecap:round;stroke-linejoin:round;stroke-miterlimit:10;" x1="188.924" y1="326.44" x2="200.257" y2="319.44"/>
				</g>
			</g>
		</g>
		<g>
			<path style="fill:#919191;stroke:#263238;stroke-linecap:round;stroke-linejoin:round;stroke-miterlimit:10;" d="M53.448,263.057
				c0,0,36.125-4.516,59.204,2.007l3.512,87.803H61.977C61.977,352.867,65.489,305.704,53.448,263.057z"/>
			<path style="fill:#757575;stroke:#263238;stroke-linecap:round;stroke-linejoin:round;stroke-miterlimit:10;" d="
				M112.652,265.064c-23.08-6.522-59.204-2.007-59.204-2.007c4.133,14.639,6.434,29.81,7.673,43.423
				c15.982,7.99,35.866,20.395,54.746,38.957L112.652,265.064z"/>
			<g>
				<g>
					<path style="fill:#FFFFFF;stroke:#263238;stroke-linecap:round;stroke-linejoin:round;stroke-miterlimit:10;" d="
						M180.758,435.041c-0.812,0-1.575-0.498-1.875-1.304c-8.021-21.556-10.042-77.522-10.124-79.895
						c-0.038-1.104,0.826-2.03,1.93-2.068c1.09-0.035,2.03,0.826,2.068,1.93c0.02,0.574,2.08,57.688,9.876,78.639
						c0.385,1.035-0.142,2.187-1.177,2.571C181.225,435,180.989,435.041,180.758,435.041z"/>
				</g>
				<g>
					<path style="fill:#FFFFFF;stroke:#263238;stroke-linecap:round;stroke-linejoin:round;stroke-miterlimit:10;" d="
						M137.214,435.041c-0.812,0-1.575-0.498-1.875-1.304c-8.021-21.556-10.042-77.522-10.124-79.895
						c-0.038-1.104,0.826-2.03,1.93-2.068c1.09-0.035,2.03,0.826,2.068,1.93c0.02,0.574,2.08,57.688,9.875,78.639
						c0.385,1.035-0.142,2.187-1.177,2.571C137.681,435,137.445,435.041,137.214,435.041z"/>
				</g>
				<path style="fill:#919191;stroke:#263238;stroke-linecap:round;stroke-linejoin:round;stroke-miterlimit:10;" d="
					M180.215,352.829H61.051v-3.972h115.192C178.437,348.857,180.215,350.635,180.215,352.829L180.215,352.829z"/>
				
					<rect x="61.051" y="351.857" style="fill:#FFFFFF;stroke:#263238;stroke-linecap:round;stroke-linejoin:round;stroke-miterlimit:10;" width="119.164" height="3.972"/>
			</g>
			<g>
				<path style="fill:#FFFFFF;stroke:#263238;stroke-linecap:round;stroke-linejoin:round;stroke-miterlimit:10;" d="
					M111.759,435.04c-0.137,0-0.275-0.014-0.415-0.043c-1.081-0.229-1.772-1.289-1.544-2.37
					c11.306-53.577,0.966-166.245,0.86-167.376c-0.103-1.1,0.706-2.075,1.805-2.177c1.086-0.102,2.075,0.705,2.177,1.805
					c0.106,1.138,10.502,114.404-0.929,168.575C113.516,434.394,112.685,435.04,111.759,435.04z"/>
			</g>
			<g>
				<path style="fill:#FFFFFF;stroke:#263238;stroke-linecap:round;stroke-linejoin:round;stroke-miterlimit:10;" d="
					M49.758,433.541c-0.18,0-0.362-0.024-0.543-0.076c-1.063-0.3-1.682-1.404-1.382-2.468c26.02-92.298,3.929-166.614,3.703-167.354
					c-0.323-1.056,0.272-2.174,1.328-2.497c1.053-0.324,2.173,0.27,2.497,1.327c0.23,0.75,22.677,76.125-3.678,169.611
					C51.434,432.965,50.631,433.541,49.758,433.541z"/>
			</g>
		</g>
	</g>
</g>
<g id="Plants">
	<g>
		<path style="fill:none;stroke:#263238;stroke-width:2;stroke-linecap:round;stroke-linejoin:round;stroke-miterlimit:10;" d="
			M415.383,268.65c0,0-12.292-6.829-13.203,8.65c-0.91,15.479-3.187,116.092-3.187,116.092"/>
		<path style="fill:none;stroke:#263238;stroke-width:2;stroke-linecap:round;stroke-linejoin:round;stroke-miterlimit:10;" d="
			M395.797,278.664c0,0,10.026,22.31,5.474,113.362"/>
		<g>
			<path style="fill:#92E3A9;" d="M405.647,271.766c0,0-4.702,3.013-7.377-0.435c-2.676-3.448,1.81-9.764-2.144-12.465
				c-3.953-2.701-10.777,1.421-10.777,1.421s5.256,1.544,5.086,4.413c-0.169,2.869-2.701,3.954-3.038,2.7
				c-0.337-1.254-2.844-7.571-7.111-4.944c-4.268,2.627-4.92,6.702-4.92,6.702s9.933-1.059,10.535,2.678
				c0.602,3.737-4.074-0.652-8.173-0.893c-4.098-0.242-7.836,0.36-7.571,2.844c0.265,2.483-0.387,6.558-0.387,6.558
				s3.472-3.085,7.981-2.819c4.509,0.266,4.339,3.135,0.241,2.893c-4.099-0.242-7.619,3.663-7.619,3.663s3.736,6.39,8.485,9.549
				c4.749,3.159,6.461,2.026,7.016-0.409c0.555-2.435-0.722-8.68,2.147-8.51c2.869,0.169-4.751,10.824-1.087,11.452
				c3.665,0.627,6.606-0.433,7.571-2.844c0.965-2.411,0.965-2.411,0.965-2.411s-1.277-6.245-0.722-8.679
				c0.555-2.435,1.229,0.072,1.88,2.99c0.65,2.917,1.059,9.933,2.313,9.596c1.254-0.337,5.257-5.448,6.197-7.449
				c0.941-2.001-5.278-8.126-5.206-9.355c0.073-1.229,4.87,1.11,5.617,2.388c0.747,1.278,1.47,2.966,1.47,2.966
				s2.99-1.88,2.919-7.642C409.866,269.958,405.647,271.766,405.647,271.766z"/>
			<path style="opacity:0.3;fill:#263238;" d="M405.647,271.766c0,0-4.702,3.013-7.377-0.435c-2.676-3.448,1.81-9.764-2.144-12.465
				c-3.953-2.701-10.777,1.421-10.777,1.421s5.256,1.544,5.086,4.413c-0.169,2.869-2.701,3.954-3.038,2.7
				c-0.337-1.254-2.844-7.571-7.111-4.944c-4.268,2.627-4.92,6.702-4.92,6.702s9.933-1.059,10.535,2.678
				c0.602,3.737-4.074-0.652-8.173-0.893c-4.098-0.242-7.836,0.36-7.571,2.844c0.265,2.483-0.387,6.558-0.387,6.558
				s3.472-3.085,7.981-2.819c4.509,0.266,4.339,3.135,0.241,2.893c-4.099-0.242-7.619,3.663-7.619,3.663s3.736,6.39,8.485,9.549
				c4.749,3.159,6.461,2.026,7.016-0.409c0.555-2.435-0.722-8.68,2.147-8.51c2.869,0.169-4.751,10.824-1.087,11.452
				c3.665,0.627,6.606-0.433,7.571-2.844c0.965-2.411,0.965-2.411,0.965-2.411s-1.277-6.245-0.722-8.679
				c0.555-2.435,1.229,0.072,1.88,2.99c0.65,2.917,1.059,9.933,2.313,9.596c1.254-0.337,5.257-5.448,6.197-7.449
				c0.941-2.001-5.278-8.126-5.206-9.355c0.073-1.229,4.87,1.11,5.617,2.388c0.747,1.278,1.47,2.966,1.47,2.966
				s2.99-1.88,2.919-7.642C409.866,269.958,405.647,271.766,405.647,271.766z"/>
			<path style="fill:none;stroke:#263238;stroke-linecap:round;stroke-linejoin:round;stroke-miterlimit:10;" d="M381.81,285.277
				c3.066-3.791,7.585-8.92,11.372-11.367"/>
			<path style="fill:none;stroke:#263238;stroke-linecap:round;stroke-linejoin:round;stroke-miterlimit:10;" d="M378.255,289.892
				c0,0,0.787-1.095,2.063-2.735"/>
			<path style="fill:none;stroke:#263238;stroke-linecap:round;stroke-linejoin:round;stroke-miterlimit:10;" d="M395.183,274.85
				c0,0,4.556,6.438,5.398,13.068"/>
			<path style="fill:none;stroke:#263238;stroke-linecap:round;stroke-linejoin:round;stroke-miterlimit:10;" d="M390.023,278.659
				c0,0,1.278-0.747,0.794,7.45"/>
			<path style="fill:none;stroke:#263238;stroke-linecap:round;stroke-linejoin:round;stroke-miterlimit:10;" d="M393.351,271.04
				c0,0,2.604-2.314,1.231-6.919"/>
			
				<line style="fill:none;stroke:#263238;stroke-linecap:round;stroke-linejoin:round;stroke-miterlimit:10;" x1="389.831" y1="274.946" x2="387.975" y2="271.546"/>
			<path style="fill:none;stroke:#263238;stroke-linecap:round;stroke-linejoin:round;stroke-miterlimit:10;" d="M385.924,278.417
				c0,0-5.906-4.461-9.595-4.679"/>
		</g>
		<g>
			<path style="fill:#92E3A9;" d="M422.406,259.618c0,0-0.188,6.761-5.464,7.09c-5.276,0.328-8.542-8.467-13.941-6.35
				c-5.399,2.117-5.924,11.759-5.924,11.759s5.128-4.21,7.885-2.085c2.757,2.125,2.117,5.399,0.632,4.882
				c-1.485-0.517-9.518-2.313-9.797,3.75c-0.279,6.064,3.357,9.493,3.357,9.493s5.71-10.667,9.862-8.723
				c4.152,1.944-3.43,3.635-6.465,7.574c-3.036,3.939-4.98,8.091-2.313,9.518c2.667,1.428,6.302,4.857,6.302,4.857
				s-0.722-5.579,2.617-9.912c3.339-4.333,6.096-2.207,3.061,1.731c-3.036,3.939-1.526,10.125-1.526,10.125
				s8.944,0.615,15.344-1.986c6.4-2.601,6.433-5.088,4.373-7.303c-2.06-2.215-9.182-5.193-7.057-7.951
				c2.125-2.757,7.599,12.135,10.725,8.894c3.126-3.241,4.07-6.909,2.314-9.518c-1.756-2.609-1.756-2.609-1.756-2.609
				s-7.122-2.978-9.182-5.193c-2.06-2.215,0.911-1.182,4.275,0.156c3.364,1.337,10.667,5.71,11.184,4.225
				c0.517-1.485-1.871-8.977-3.234-11.282c-1.362-2.306-11.734-0.254-12.915-1.165c-1.182-0.911,4.431-4.119,6.219-3.996
				c1.789,0.123,3.971,0.549,3.971,0.549s0.156-4.275-5.662-8.131C423.472,254.162,422.406,259.618,422.406,259.618z"/>
			<path style="opacity:0.2;fill:#263238;" d="M422.406,259.618c0,0-0.188,6.761-5.464,7.09c-5.276,0.328-8.542-8.467-13.941-6.35
				c-5.399,2.117-5.924,11.759-5.924,11.759s5.128-4.21,7.885-2.085c2.757,2.125,2.117,5.399,0.632,4.882
				c-1.485-0.517-9.518-2.313-9.797,3.75c-0.279,6.064,3.357,9.493,3.357,9.493s5.71-10.667,9.862-8.723
				c4.152,1.944-3.43,3.635-6.465,7.574c-3.036,3.939-4.98,8.091-2.313,9.518c2.667,1.428,6.302,4.857,6.302,4.857
				s-0.722-5.579,2.617-9.912c3.339-4.333,6.096-2.207,3.061,1.731c-3.036,3.939-1.526,10.125-1.526,10.125
				s8.944,0.615,15.344-1.986c6.4-2.601,6.433-5.088,4.373-7.303c-2.06-2.215-9.182-5.193-7.057-7.951
				c2.125-2.757,7.599,12.135,10.725,8.894c3.126-3.241,4.07-6.909,2.314-9.518c-1.756-2.609-1.756-2.609-1.756-2.609
				s-7.122-2.978-9.182-5.193c-2.06-2.215,0.911-1.182,4.275,0.156c3.364,1.337,10.667,5.71,11.184,4.225
				c0.517-1.485-1.871-8.977-3.234-11.282c-1.362-2.306-11.734-0.254-12.915-1.165c-1.182-0.911,4.431-4.119,6.219-3.996
				c1.789,0.123,3.971,0.549,3.971,0.549s0.156-4.275-5.662-8.131C423.472,254.162,422.406,259.618,422.406,259.618z"/>
			<path style="fill:none;stroke:#263238;stroke-linecap:round;stroke-linejoin:round;stroke-miterlimit:10;" d="M419.685,292.694
				c-1.705-5.654-3.76-13.674-3.63-19.134"/>
			<path style="fill:none;stroke:#263238;stroke-linecap:round;stroke-linejoin:round;stroke-miterlimit:10;" d="M421.883,299.398
				c0,0-0.559-1.534-1.332-3.93"/>
			<path style="fill:none;stroke:#263238;stroke-linecap:round;stroke-linejoin:round;stroke-miterlimit:10;" d="M418.361,272.197
				c0,0,9.551-0.173,16.764,3.503"/>
			<path style="fill:none;stroke:#263238;stroke-linecap:round;stroke-linejoin:round;stroke-miterlimit:10;" d="M418.657,279.96
				c0,0,0.123-1.789,8,4.283"/>
			<path style="fill:none;stroke:#263238;stroke-linecap:round;stroke-linejoin:round;stroke-miterlimit:10;" d="M413.298,271.435
				c0,0-0.542-4.185-6.089-5.949"/>
			
				<line style="fill:none;stroke:#263238;stroke-linecap:round;stroke-linejoin:round;stroke-miterlimit:10;" x1="414.809" y1="277.621" x2="410.14" y2="277.162"/>
			<path style="fill:none;stroke:#263238;stroke-linecap:round;stroke-linejoin:round;stroke-miterlimit:10;" d="M415.621,283.898
				c0,0-8.492,2.872-11.224,6.417"/>
		</g>
		<path style="fill:none;stroke:#263238;stroke-width:2;stroke-linecap:round;stroke-linejoin:round;stroke-miterlimit:10;" d="
			M365.76,304.616c0,0,26.861,17.755,26.405,86.5"/>
		<g>
			<path style="fill:#92E3A9;" d="M398.878,299.926c0,0-0.855,7.784-6.975,7.665c-6.119-0.119-9.058-10.577-15.488-8.643
				c-6.43,1.934-7.945,13.009-7.945,13.009s6.315-4.374,9.296-1.661c2.981,2.712,1.934,6.43,0.268,5.693
				c-1.665-0.737-10.765-3.568-11.659,3.403c-0.894,6.971,2.977,11.271,2.977,11.271s7.596-11.77,12.204-9.135
				c4.608,2.636-4.301,3.871-8.175,8.129c-3.875,4.258-6.51,8.866-3.568,10.765c2.942,1.899,6.813,6.2,6.813,6.2
				s-0.307-6.507,3.955-11.191c4.262-4.684,7.243-1.972,3.368,2.286c-3.875,4.258-2.716,11.54-2.716,11.54
				s10.262,1.554,17.893-0.844c7.63-2.398,7.903-5.263,5.735-8.014c-2.168-2.751-10.105-6.86-7.393-9.84
				c2.712-2.981,7.623,14.72,11.536,11.275c3.913-3.445,5.348-7.589,3.568-10.765c-1.78-3.177-1.78-3.177-1.78-3.177
				s-7.938-4.109-10.105-6.859c-2.168-2.751,1.162-1.277,4.918,0.583c3.756,1.861,11.77,7.596,12.507,5.931
				c0.737-1.665-1.312-10.535-2.666-13.324c-1.354-2.789-13.516-1.4-14.793-2.563c-1.278-1.162,5.501-4.335,7.554-4.024
				c2.052,0.311,4.531,1.009,4.531,1.009s0.583-4.918-5.766-9.917C400.623,293.73,398.878,299.926,398.878,299.926z"/>
			<path style="opacity:0.3;fill:#263238;" d="M398.878,299.926c0,0-0.855,7.784-6.975,7.665
				c-6.119-0.119-9.058-10.577-15.488-8.643c-6.43,1.934-7.945,13.009-7.945,13.009s6.315-4.374,9.296-1.661
				c2.981,2.712,1.934,6.43,0.268,5.693c-1.665-0.737-10.765-3.568-11.659,3.403c-0.894,6.971,2.977,11.271,2.977,11.271
				s7.596-11.77,12.204-9.135c4.608,2.636-4.301,3.871-8.175,8.129c-3.875,4.258-6.51,8.866-3.568,10.765
				c2.942,1.899,6.813,6.2,6.813,6.2s-0.307-6.507,3.955-11.191c4.262-4.684,7.243-1.972,3.368,2.286
				c-3.875,4.258-2.716,11.54-2.716,11.54s10.262,1.554,17.893-0.844c7.63-2.398,7.903-5.263,5.735-8.014
				c-2.168-2.751-10.105-6.86-7.393-9.84c2.712-2.981,7.623,14.72,11.536,11.275c3.913-3.445,5.348-7.589,3.568-10.765
				c-1.78-3.177-1.78-3.177-1.78-3.177s-7.938-4.109-10.105-6.859c-2.168-2.751,1.162-1.277,4.918,0.583
				c3.756,1.861,11.77,7.596,12.507,5.931c0.737-1.665-1.312-10.535-2.666-13.324c-1.354-2.789-13.516-1.4-14.793-2.563
				c-1.278-1.162,5.501-4.335,7.554-4.024c2.052,0.311,4.531,1.009,4.531,1.009s0.583-4.918-5.766-9.917
				C400.623,293.73,398.878,299.926,398.878,299.926z"/>
			<path style="fill:none;stroke:#263238;stroke-linecap:round;stroke-linejoin:round;stroke-miterlimit:10;" d="M392.617,337.835
				c-1.434-6.685-3.049-16.133-2.383-22.422"/>
			<path style="fill:none;stroke:#263238;stroke-linecap:round;stroke-linejoin:round;stroke-miterlimit:10;" d="M394.52,345.778
				c0,0-0.501-1.823-1.166-4.661"/>
			<path style="fill:none;stroke:#263238;stroke-linecap:round;stroke-linejoin:round;stroke-miterlimit:10;" d="M393.023,314.059
				c0,0,11.037,0.702,19.013,5.624"/>
			<path style="fill:none;stroke:#263238;stroke-linecap:round;stroke-linejoin:round;stroke-miterlimit:10;" d="M392.632,323.044
				c0,0,0.311-2.052,8.828,5.697"/>
			<path style="fill:none;stroke:#263238;stroke-linecap:round;stroke-linejoin:round;stroke-miterlimit:10;" d="M387.254,312.701
				c0,0-0.23-4.88-6.464-7.439"/>
			
				<line style="fill:none;stroke:#263238;stroke-linecap:round;stroke-linejoin:round;stroke-miterlimit:10;" x1="388.412" y1="319.982" x2="383.068" y2="319.012"/>
			<path style="fill:none;stroke:#263238;stroke-linecap:round;stroke-linejoin:round;stroke-miterlimit:10;" d="M388.757,327.302
				c0,0-10.07,2.513-13.558,6.346"/>
		</g>
		<path style="fill:none;stroke:#263238;stroke-width:2;stroke-linecap:round;stroke-linejoin:round;stroke-miterlimit:10;" d="
			M376.231,358.792c0,0,17.3,13.203,19.121,32.779l-3.642-65.558"/>
		<path style="fill:none;stroke:#263238;stroke-width:2;stroke-linecap:round;stroke-linejoin:round;stroke-miterlimit:10;" d="
			M418.115,349.232c-22.763-4.097-22.763,42.34-22.763,42.34"/>
		<path style="fill:none;stroke:#263238;stroke-width:2;stroke-linecap:round;stroke-linejoin:round;stroke-miterlimit:10;" d="
			M398.083,391.116c0,0-13.202-96.06,25.04-96.06"/>
		<g>
			<path style="fill:#92E3A9;" d="M409.441,346.47c-3.109-3.498-9.717-3.498-13.603,5.441c-3.887,8.939-0.389,7.385-0.389,7.385
				s7.385-2.332,12.049-3.887c4.664-1.555,10.883-5.441,11.271-3.109c0.389,2.332-3.109,4.664-7.385,5.441
				c-4.275,0.777-15.547,3.887-14.381,6.219c1.166,2.332,3.887,9.328,3.887,9.328s5.441-4.664,10.494-7.773
				c5.053-3.109,8.162-1.943,5.441,1.555c-2.721,3.498-10.494,7.385-8.94,12.049c1.555,4.664,10.883,10.494,10.883,10.494
				s1.166-9.717,3.887-12.826c2.721-3.109,2.721,0.389,1.943,5.83c-0.777,5.441-0.777,6.996-0.777,6.996l10.883,3.887
				c0,0,3.887-5.83,5.83-7.773c1.943-1.943,1.943-1.943,1.943-1.943s-8.551-7.385-8.939-12.049c-0.389-4.664,5.83,0,7.773,0.777
				c1.943,0.777,5.053,6.219,5.053,6.219s1.943-8.939,2.332-12.049c0.389-3.109,0.389-3.109,0.389-3.109s-8.162-3.109-11.271-3.109
				c-3.109,0-4.664,2.332-4.664-0.777c0-3.109,3.109-5.053,6.607-4.664c3.498,0.389,9.328,2.332,9.328,2.332
				s2.332-1.943,1.555-7.773c-0.777-5.83-2.721-5.83-7.385-4.275c-4.664,1.555-7.773,5.053-11.271,5.053
				c-3.498,0-1.555-4.275,0.777-5.441c2.332-1.166,8.162-3.498,9.328-3.887c1.166-0.389-6.219-5.83-10.105-6.607
				c-3.887-0.777-8.919,1.961-8.551,5.83C424.211,348.414,412.55,349.968,409.441,346.47z"/>
			<path style="fill:none;stroke:#263238;stroke-linecap:round;stroke-linejoin:round;stroke-miterlimit:10;" d="M434.461,386.489
				c0.116,1.17,0.199,2.343,0.244,3.512"/>
			<path style="fill:none;stroke:#263238;stroke-linecap:round;stroke-linejoin:round;stroke-miterlimit:10;" d="M426.653,358.587
				c2.729,6.308,5.886,15.007,7.316,24.084"/>
			<path style="fill:none;stroke:#263238;stroke-linecap:round;stroke-linejoin:round;stroke-miterlimit:10;" d="M425.253,355.467
				c-1.925-4.141-3.374-6.665-3.374-6.665s3.498-1.555,5.053-4.664c1.555-3.109,3.887-4.664,3.887-4.664"/>
			<path style="fill:none;stroke:#263238;stroke-linecap:round;stroke-linejoin:round;stroke-miterlimit:10;" d="M408.275,362.017
				c0,0,13.992-5.83,13.992-4.664"/>
			<path style="fill:none;stroke:#263238;stroke-linecap:round;stroke-linejoin:round;stroke-miterlimit:10;" d="M430.041,354.632
				c0,0,6.219-3.109,11.66-3.109"/>
			<path style="fill:none;stroke:#263238;stroke-linecap:round;stroke-linejoin:round;stroke-miterlimit:10;" d="M427.709,363.96
				c0,0-3.498,2.721-7.385,7.385c-3.887,4.664-5.441,8.939-5.441,8.939"/>
			<path style="fill:none;stroke:#263238;stroke-linecap:round;stroke-linejoin:round;stroke-miterlimit:10;" d="M431.984,365.515
				c0,0,8.162-2.332,12.437,1.555"/>
		</g>
		<g>
			<path style="fill:#92E3A9;" d="M446.769,312.998c-4.232-2.503-8.911-2.557-11.205-5.199c-2.293-2.642,2.209-3.977,4.619-2.98
				c2.409,0.997,7.992,3.87,9.05,4.496c1.058,0.626,0.326-8.518-1.635-11.963c-1.961-3.445-7.328-5.45-10.008-2.635
				c-5.654,5.938-14.472-1.848-13.869-6.489c0.603-4.641-3.729-9.631-13.027-6.705c-9.298,2.926-5.831,4.548-5.831,4.548
				s6.602,4.048,10.834,6.551c4.232,2.503,11.243,4.651,9.737,6.473c-1.506,1.822-5.56,0.71-8.95-2.009
				c-3.39-2.719-13.127-9.192-14.124-6.783c-0.997,2.409-4.496,9.05-4.496,9.05s7.089,1.052,12.749,2.829
				c5.66,1.777,6.818,4.889,2.393,5.128c-4.425,0.239-12.456-3.083-14.959,1.148c-2.503,4.231-0.79,15.098-0.79,15.098
				s8.102-5.49,12.234-5.473c4.131,0.016,1.49,2.309-3.129,5.289c-4.619,2.98-5.793,3.999-5.793,3.999l4.199,10.766
				c0,0,6.951-0.887,9.692-0.693c2.741,0.193,2.741,0.193,2.741,0.193s-0.029-11.298,3.238-14.649
				c3.267-3.351,3.822,4.402,4.509,6.38c0.687,1.977-1.384,7.892-1.384,7.892s8.025-4.393,10.627-6.138
				c2.603-1.745,2.603-1.745,2.603-1.745s-3.003-8.202-5.041-10.55c-2.038-2.348-4.819-1.993-2.471-4.032
				c2.348-2.038,5.854-0.964,7.854,1.932c2,2.896,4.354,8.573,4.354,8.573s2.996,0.487,6.889-3.922
				C452.274,316.968,451,315.501,446.769,312.998z M409.986,325.439c-3.109-1.555,4.275-4.664,4.275-4.664
				C416.982,320.386,413.095,326.993,409.986,325.439z M415.222,310.928c-1.325-0.663,2.651-1.988,2.651-1.988
				C423.617,310.045,416.547,311.591,415.222,310.928z"/>
			<path style="fill:none;stroke:#263238;stroke-linecap:round;stroke-linejoin:round;stroke-miterlimit:10;" d="M409.903,333.356
				c-0.808,0.855-1.639,1.686-2.493,2.487"/>
			<path style="fill:none;stroke:#263238;stroke-linecap:round;stroke-linejoin:round;stroke-miterlimit:10;" d="M425.854,309.168
				c-2.974,6.197-7.473,14.283-13.391,21.314"/>
			<path style="fill:none;stroke:#263238;stroke-linecap:round;stroke-linejoin:round;stroke-miterlimit:10;" d="M427.293,306.066
				c1.864-4.168,2.82-6.918,2.82-6.918s3.467,1.622,6.834,0.758c3.367-0.864,6.07-0.122,6.07-0.122"/>
			<path style="fill:none;stroke:#263238;stroke-linecap:round;stroke-linejoin:round;stroke-miterlimit:10;" d="M423.911,305.048
				c0.88-0.764-12.695-7.508-12.695-7.508"/>
			<path style="fill:none;stroke:#263238;stroke-linecap:round;stroke-linejoin:round;stroke-miterlimit:10;" d="M431.062,309.134
				c0,0,6.425,2.658,9.992,6.767"/>
			<path style="fill:none;stroke:#263238;stroke-linecap:round;stroke-linejoin:round;stroke-miterlimit:10;" d="M422.489,313.488
				c0,0-4.348-0.858-10.418-0.735c-6.07,0.123-10.318,1.751-10.318,1.751"/>
			<path style="fill:none;stroke:#263238;stroke-linecap:round;stroke-linejoin:round;stroke-miterlimit:10;" d="M424.118,317.736
				c0,0,7.112,4.635,6.979,10.411"/>
		</g>
		<g>
			<path style="fill:#92E3A9;" d="M386.374,366.853c-3.405-2.014-7.172-2.058-9.017-4.184c-1.845-2.126,1.778-3.2,3.717-2.398
				c1.939,0.802,6.432,3.115,7.283,3.618c0.851,0.504,0.262-6.855-1.316-9.627c-1.578-2.772-5.897-4.386-8.054-2.121
				c-4.55,4.778-11.646-1.487-11.161-5.222c0.485-3.735-3-7.75-10.483-5.396c-7.483,2.354-4.693,3.66-4.693,3.66
				s5.313,3.257,8.719,5.272c3.405,2.014,9.048,3.743,7.836,5.209c-1.212,1.466-4.475,0.571-7.203-1.617
				c-2.728-2.188-10.564-7.397-11.366-5.458c-0.802,1.939-3.618,7.283-3.618,7.283s5.705,0.846,10.26,2.276
				c4.555,1.43,5.487,3.935,1.926,4.127c-3.561,0.192-10.024-2.481-12.038,0.924c-2.014,3.405-0.636,12.15-0.636,12.15
				s6.52-4.418,9.845-4.405c3.325,0.013,1.199,1.858-2.518,4.257c-3.717,2.398-4.661,3.219-4.661,3.219l3.379,8.664
				c0,0,5.593-0.714,7.8-0.558c2.206,0.156,2.206,0.156,2.206,0.156s-0.023-9.092,2.606-11.789c2.629-2.697,3.076,3.543,3.629,5.134
				c0.553,1.591-1.113,6.351-1.113,6.351s6.458-3.535,8.552-4.939c2.095-1.404,2.095-1.404,2.095-1.404s-2.417-6.6-4.057-8.49
				c-1.64-1.89-3.878-1.604-1.988-3.244c1.889-1.64,4.711-0.776,6.32,1.555c1.609,2.331,3.504,6.899,3.504,6.899
				s2.411,0.392,5.544-3.156C390.804,370.048,389.779,368.867,386.374,366.853z M356.773,376.865
				c-2.502-1.251,3.441-3.753,3.441-3.753C362.403,372.799,359.275,378.116,356.773,376.865z M360.986,365.188
				c-1.067-0.533,2.133-1.6,2.133-1.6C367.742,364.477,362.053,365.721,360.986,365.188z"/>
			<path style="fill:none;stroke:#263238;stroke-linecap:round;stroke-linejoin:round;stroke-miterlimit:10;" d="M356.706,383.237
				c-0.65,0.688-1.319,1.357-2.006,2.001"/>
			<path style="fill:none;stroke:#263238;stroke-linecap:round;stroke-linejoin:round;stroke-miterlimit:10;" d="M369.543,363.772
				c-2.394,4.987-6.014,11.494-10.776,17.152"/>
			<path style="fill:none;stroke:#263238;stroke-linecap:round;stroke-linejoin:round;stroke-miterlimit:10;" d="M370.7,361.275
				c1.5-3.355,2.27-5.567,2.27-5.567s2.79,1.305,5.5,0.61c2.71-0.696,4.885-0.099,4.885-0.099"/>
			<path style="fill:none;stroke:#263238;stroke-linecap:round;stroke-linejoin:round;stroke-miterlimit:10;" d="M357.763,354.413
				c0,0,10.925,5.427,10.216,6.042"/>
			<path style="fill:none;stroke:#263238;stroke-linecap:round;stroke-linejoin:round;stroke-miterlimit:10;" d="M373.733,363.744
				c0,0,5.17,2.139,8.041,5.445"/>
			<path style="fill:none;stroke:#263238;stroke-linecap:round;stroke-linejoin:round;stroke-miterlimit:10;" d="M366.834,367.248
				c0,0-3.499-0.69-8.384-0.592c-4.885,0.099-8.303,1.41-8.303,1.41"/>
			<path style="fill:none;stroke:#263238;stroke-linecap:round;stroke-linejoin:round;stroke-miterlimit:10;" d="M368.145,370.666
				c0,0,5.723,3.73,5.617,8.378"/>
		</g>
		<g>
			<path style="fill:#92E3A9;" d="M372.488,302.672c0,0-4.275,3.109-6.996,0c-2.721-3.109,1.166-9.328-2.721-11.66
				c-3.887-2.332-10.105,1.943-10.105,1.943s5.053,1.166,5.053,3.887c0,2.721-2.332,3.887-2.721,2.721
				c-0.389-1.166-3.109-6.996-6.996-4.275c-3.887,2.721-4.276,6.607-4.276,6.607s9.328-1.555,10.105,1.943
				c0.777,3.498-3.887-0.389-7.773-0.389c-3.887,0-7.385,0.777-6.996,3.109c0.389,2.332,0,6.219,0,6.219s3.109-3.109,7.385-3.109
				c4.276,0,4.276,2.721,0.389,2.721c-3.887,0-6.996,3.887-6.996,3.887s3.887,5.83,8.551,8.551c4.664,2.721,6.219,1.555,6.608-0.777
				c0.388-2.332-1.166-8.162,1.555-8.162c2.721,0-3.887,10.494-0.389,10.883c3.498,0.389,6.219-0.777,6.996-3.109
				c0.777-2.332,0.777-2.332,0.777-2.332s-1.555-5.83-1.166-8.162c0.388-2.332,1.166,0,1.943,2.721
				c0.777,2.721,1.555,9.328,2.721,8.939c1.166-0.389,4.664-5.441,5.441-7.385c0.777-1.943-5.441-7.385-5.441-8.551
				c0-1.166,4.664,0.777,5.441,1.943c0.777,1.166,1.555,2.721,1.555,2.721s2.721-1.943,2.332-7.385
				C376.375,300.728,372.488,302.672,372.488,302.672z"/>
			<path style="fill:none;stroke:#263238;stroke-linecap:round;stroke-linejoin:round;stroke-miterlimit:10;" d="M350.715,316.769
				c2.686-3.753,6.671-8.852,10.113-11.376"/>
			<path style="fill:none;stroke:#263238;stroke-linecap:round;stroke-linejoin:round;stroke-miterlimit:10;" d="M347.613,321.328
				c0,0,0.683-1.078,1.798-2.699"/>
			<path style="fill:none;stroke:#263238;stroke-linecap:round;stroke-linejoin:round;stroke-miterlimit:10;" d="M362.771,306.17
				c0,0,4.664,5.83,5.83,12.049"/>
			<path style="fill:none;stroke:#263238;stroke-linecap:round;stroke-linejoin:round;stroke-miterlimit:10;" d="M358.107,310.056
				c0,0,1.166-0.777,1.166,6.996"/>
			<path style="fill:none;stroke:#263238;stroke-linecap:round;stroke-linejoin:round;stroke-miterlimit:10;" d="M360.828,302.672
				c0,0,2.332-2.332,0.777-6.607"/>
			
				<line style="fill:none;stroke:#263238;stroke-linecap:round;stroke-linejoin:round;stroke-miterlimit:10;" x1="357.719" y1="306.558" x2="355.775" y2="303.449"/>
			<path style="fill:none;stroke:#263238;stroke-linecap:round;stroke-linejoin:round;stroke-miterlimit:10;" d="M354.22,310.056
				c0,0-5.83-3.887-9.328-3.887"/>
		</g>
		
			<rect x="381.694" y="389.75" style="fill:#263238;stroke:#263238;stroke-width:2;stroke-linecap:round;stroke-linejoin:round;stroke-miterlimit:10;" width="30.047" height="43.25"/>
	</g>
</g>
</svg>
