<svg xmlns="http://www.w3.org/2000/svg" width="66" height="90" viewBox="0 0 66 90" fill="none">
<path d="M35.0927 0.587726C34.0374 1.54435 33.2709 11.736 34.1813 12.2155C34.6764 12.4925 35.2507 10.2553 35.6512 6.28473C36.2989 -0.13579 36.2618 -0.632507 35.0927 0.587726Z" fill="#E6C356"/>
<path d="M21.0157 9.72684C22.1571 13.1022 23.4688 14.788 23.6307 13.1828C23.7756 11.7467 21.4192 6.59089 20.7137 6.67222C20.2727 6.72304 20.4806 8.11855 21.0157 9.72684Z" fill="#E6C356"/>
<path d="M50.7184 6.08869C48.7475 10.0733 48.2699 12.2158 49.6409 10.7218C50.4581 9.92207 51.9661 6.55872 52.6199 4.48291C52.9709 3.36857 52.3768 3.14497 51.7472 4.1845C51.4277 4.71199 51.0712 5.36341 50.7184 6.08869Z" fill="#E6C356"/>
<path d="M8.3514 17.6978C8.30325 19.0393 11.3848 22.191 12.0617 21.5285C12.4486 21.1499 11.7827 19.9742 10.5877 18.8595C9.38412 17.8292 8.39401 17.2754 8.3514 17.6978Z" fill="#E6C356"/>
<path d="M21.8607 17.7271C16.1458 20.8073 12.7439 24.2889 9.63244 30.0749C2.75264 42.9752 5.58863 58.9305 15.5179 62.4619C18.2036 63.4882 19.3104 64.6131 19.9623 66.7925C20.1964 67.6403 20.4523 68.5085 20.6598 69.2251C20.9369 70.1823 21.1186 71.3632 20.1377 72.0044C19.9397 72.1338 19.72 72.2541 19.488 72.358C17.2151 73.288 16.314 77.9008 18.3539 78.4171C19.0253 78.6737 19.5574 79.4474 19.4722 80.2922C19.2421 82.5731 24.611 86.3797 27.5213 86.0442C30.4316 85.7088 36.4677 81.1721 37.4289 78.5563C37.7957 77.5121 38.9563 76.3763 39.9519 76.011C42.4809 75.135 42.907 70.911 40.4973 70.6043C36.8871 70.1019 39.748 63.3428 46.4922 56.971C53.2535 50.4303 55.6083 45.2324 56.008 36.0851C56.3506 25.7753 51.4704 17.988 42.611 15.0848C37.1343 13.2111 27.9454 14.4373 21.8607 17.7271ZM43.2713 17.1796C48.3782 19.2629 52.9934 24.4923 54.1407 29.5369C54.4994 31.1656 54.5058 35.4232 54.1649 38.8025C53.3724 46.6592 51.1029 51.0122 44.552 57.1947C40.9822 60.6121 39.3667 62.8023 38.2747 65.8506C37.4017 68.4562 36.375 69.994 35.5812 70.0855C34.523 70.2075 34.4148 69.5519 34.9806 67.3993C35.4782 65.9224 36.2856 62.2389 36.9281 59.3259C37.9429 54.4496 38.2671 53.8277 41.1544 51.9919C44.42 49.862 47.6967 45.8939 47.321 44.4343C47.1957 43.9477 45.9385 45.1781 44.6131 47.0843C43.1994 49.0008 41.3704 50.7145 40.5597 50.975C39.1231 51.3911 39.086 50.8944 39.7967 47.3055L39.8193 47.1965C39.9123 46.7469 39.2888 46.691 39.1167 47.1334C37.4645 51.4153 34.7792 52.9773 32.9097 50.7713C32.0589 49.7004 32.2238 48.9299 34.1351 45.5367C37.0816 40.5211 37.7407 34.8508 35.7205 32.4117C34.4799 30.8847 34.0474 30.8511 32.8072 31.9125C29.482 34.6338 27.8757 41.9163 29.2735 47.934C29.5866 49.1504 29.0775 49.8771 27.3252 50.8305C25.1149 52.0038 24.9471 51.9397 24.389 48.8311C23.5974 44.5804 22.7155 44.682 22.9779 48.9937C23.1377 51.7307 23.0069 52.1633 21.8945 51.9575C21.1349 51.7111 20.1077 50.6605 19.53 49.4746C18.9438 48.3732 18.4658 47.9273 18.3094 48.6134C18.2497 49.2047 19.4818 50.8162 21.0041 52.1437C23.4026 54.2886 23.8751 55.6536 24.8349 62.5569C25.3534 66.9225 25.5787 70.7375 25.2886 71.0214C24.0313 72.2518 22.4465 70.681 21.6323 67.5184C21.1228 65.6567 19.8451 63.633 18.7754 63.0048C9.13883 57.4358 6.25886 51.4219 7.96696 40.5372C9.43347 31.1834 13.3897 24.7989 20.2026 20.3397C22.9135 18.5243 26.2246 16.8066 27.5645 16.4852C32.3238 15.1016 38.7391 15.4476 43.2713 17.1796ZM35.4819 34.7772C36.2589 37.443 35.0847 42.1708 32.8548 45.2668C31.4327 47.2677 31.2563 47.288 30.5904 46.1123C29.0537 43.2 31.567 32.974 33.86 32.7097C34.3891 32.6487 35.0806 33.5709 35.4819 34.7772ZM32.5173 52.069C33.6583 52.856 35.169 53.4333 35.8745 53.352C36.8446 53.2402 36.9613 53.8112 36.5689 55.1089C36.1936 56.2377 35.281 60.1003 34.5703 63.6891L33.8518 67.4222C33.5324 69.0814 32.0274 70.4951 30.378 70.6852C27.115 71.0614 27.2488 71.4634 26.0466 60.9142C25.2887 53.7372 25.3058 53.5683 27.1007 52.1924C29.4588 50.4176 30.0762 50.3465 32.5173 52.069ZM40.2587 72.9697C40.1053 74.4904 39.3913 74.6562 29.514 75.7947C19.6367 76.9333 18.9397 76.9301 19.0931 75.4095C19.2379 73.9733 19.969 73.6385 23.5222 72.9785C25.8322 72.5452 30.5944 71.9963 34.105 71.7586C39.6354 71.3716 40.4036 71.5336 40.2587 72.9697ZM36.0775 78.1276C35.6851 79.4253 34.6013 79.8007 28.6043 80.492C22.6074 81.1832 21.5747 81.0518 21.4379 79.8151C21.3012 78.5784 22.1119 78.3179 28.9026 77.5352C35.6932 76.7524 36.4699 76.8299 36.0775 78.1276ZM32.3599 82.1466C32.2065 83.6672 27.8711 85.1689 25.5752 84.5986C22.0872 83.7482 23.2733 82.359 28.0356 81.81C30.5049 81.5254 32.4025 81.7242 32.3599 82.1466Z" fill="#E6C356"/>
<path d="M14.7705 28.3971C13.0497 30.7664 10.2032 39.1104 10.6587 40.6444C10.7839 41.1309 11.5546 39.5391 12.3309 37.0282C13.1954 34.5071 14.5775 31.1748 15.5075 29.7316C17.4984 26.4127 16.9919 25.3856 14.7705 28.3971Z" fill="#E6C356"/>
<path d="M13.9142 36.8459C13.5388 37.9747 13.5959 39.1371 13.9943 39.5087C14.5519 40.0289 14.8847 39.3225 15.0636 37.5484C15.3789 34.4227 14.9721 34.1356 13.9142 36.8459Z" fill="#E6C356"/>
<path d="M59.5778 17.1364C57.621 20.1174 57.2542 21.1617 58.6537 20.2489C59.9651 19.3462 62.9116 14.3307 62.0297 14.4323C61.6769 14.473 60.5961 15.6831 59.5778 17.1364Z" fill="#E6C356"/>
<path d="M0.94507 30.6589C1.60798 30.9999 2.80004 31.28 3.50556 31.1987C4.65203 31.0666 4.66055 30.9821 3.59077 30.3539C2.92786 30.0128 1.73581 29.7327 1.03029 29.8141C-0.116187 29.9462 -0.124708 30.0307 0.94507 30.6589Z" fill="#E6C356"/>
<path d="M60.7816 25.9336C60.0432 26.3167 59.3907 26.7064 58.915 27.048C58.2018 27.5599 58.4922 28.1437 59.2936 27.9349C61.2977 27.4128 65.09 25.5637 65.1625 24.8442C65.2648 23.8304 64.5508 23.9962 60.7816 25.9336Z" fill="#E6C356"/>
</svg>